<svg width="29" height="29" viewBox="0 0 29 29" fill="none" xmlns="http://www.w3.org/2000/svg">
<path d="M22.0226 0.290039H6.97741C3.30021 0.290039 0.290005 3.30024 0.290005 6.97744V22.0226C0.290005 25.6998 3.30021 28.71 6.97741 28.71H22.0226C25.6998 28.71 28.71 25.6998 28.71 22.0226V6.97744C28.71 3.30024 25.6998 0.290039 22.0226 0.290039ZM27.0396 22.0226C27.0396 24.7863 24.7892 27.0367 22.0255 27.0367H6.97741C4.21371 27.0367 1.9633 24.7863 1.9633 22.0226V11.9915H7.32541C6.84691 13.0123 6.56271 14.1375 6.56271 15.3352C6.56271 19.7142 10.1239 23.2754 14.5029 23.2754C18.8819 23.2754 22.4431 19.7142 22.4431 15.3352C22.4431 14.1375 22.156 13.0123 21.6804 11.9915H27.0425V22.0226H27.0396ZM20.7698 15.3352C20.7698 18.792 17.9568 21.605 14.5 21.605C11.0432 21.605 8.23021 18.792 8.23021 15.3352C8.23021 11.8784 11.0432 9.06544 14.5 9.06544C17.9568 9.06544 20.7698 11.8784 20.7698 15.3352ZM20.6045 10.3211C19.1487 8.54924 16.9679 7.39504 14.5 7.39504C12.0321 7.39504 9.85131 8.54924 8.39551 10.3211H1.9604V6.97744C1.9604 4.21374 4.2108 1.96334 6.97451 1.96334H22.0197C24.7834 1.96334 27.0338 4.21374 27.0338 6.97744V10.3211H20.6045ZM24.4528 4.84014V7.00934C24.4528 7.50814 24.0439 7.91704 23.548 7.91704H21.2599C20.7582 7.91414 20.3493 7.50814 20.3493 7.00934V4.84014C20.3493 4.34134 20.7582 3.93244 21.2599 3.93244H23.548C24.0468 3.93244 24.4528 4.34134 24.4528 4.84014Z" fill="#051920"/>
</svg>
