<svg width="29" height="29" viewBox="0 0 29 29" fill="none" xmlns="http://www.w3.org/2000/svg">
<path d="M0.289997 14.4999V24.877H14.5H28.71V14.4999V4.12281H14.5H0.289997V14.4999ZM25.5313 5.89297C25.5313 5.94285 14.5496 15.9334 14.5 15.9334C14.444 15.9334 3.46869 5.94285 3.46869 5.89297C3.46869 5.8805 8.42972 5.86803 14.5 5.86803C20.5706 5.86803 25.5313 5.8805 25.5313 5.89297ZM9.38324 13.6896C12.1629 16.2263 14.469 18.3018 14.5 18.3018C14.531 18.3018 15.1107 17.7969 15.7902 17.1801C18.4266 14.7806 24.2599 9.45794 25.5815 8.24893L26.9651 6.98366V15.0547V23.132H14.5H2.03522V15.0607V6.98337L3.17579 8.03056C3.80509 8.60389 6.59721 11.153 9.38324 13.6896Z" fill="#051920"/>
</svg>
