<svg width="19" height="29" viewBox="0 0 19 29" fill="none" xmlns="http://www.w3.org/2000/svg">
<path d="M9.49998 25.7085L9.02438 25.1227C8.67058 24.6848 0.330185 14.3434 0.330185 9.45694C0.333085 4.40224 4.44528 0.290039 9.49998 0.290039C14.5547 0.290039 18.6669 4.40224 18.6669 9.45694C18.6669 14.3434 10.3294 24.6848 9.97268 25.1227L9.49998 25.7085ZM9.49998 1.51384C5.11808 1.51384 1.55398 5.07794 1.55398 9.45984C1.55398 13.2907 7.71938 21.4745 9.49998 23.7539C11.2806 21.4716 17.446 13.2907 17.446 9.45984C17.446 5.07794 13.8819 1.51384 9.49998 1.51384Z" fill="#051920"/>
<path d="M9.49998 14.0419C6.97119 14.0419 4.91509 11.9858 4.91509 9.45697C4.91509 6.92817 6.97119 4.87207 9.49998 4.87207C12.0288 4.87207 14.0849 6.92817 14.0849 9.45697C14.0849 11.9858 12.0288 14.0419 9.49998 14.0419ZM9.49998 5.48397C7.31049 5.48397 5.52699 7.26747 5.52699 9.45697C5.52699 11.6465 7.31049 13.43 9.49998 13.43C11.6895 13.43 13.473 11.6465 13.473 9.45697C13.473 7.26747 11.6895 5.48397 9.49998 5.48397Z" fill="#051920"/>
<path d="M13.9747 22.3735V22.997C16.6833 23.5161 18.3624 24.4673 18.3624 25.3489C18.3624 26.651 14.7229 28.0981 9.5 28.0981C4.2771 28.0981 0.637596 26.6481 0.637596 25.3489C0.637596 24.4673 2.3167 23.5161 5.0253 22.997V22.3735C2.2094 22.8839 0.0285963 23.8902 0.0285963 25.3489C0.0256963 27.5326 4.9064 28.71 9.5 28.71C14.0936 28.71 18.9743 27.5326 18.9743 25.3489C18.9743 23.8902 16.7906 22.8839 13.9747 22.3735Z" fill="#051920"/>
</svg>
