<svg width="29" height="29" viewBox="0 0 29 29" fill="none" xmlns="http://www.w3.org/2000/svg">
<path d="M22.2087 21.8326L19.5069 17.5477C19.2998 17.2133 18.8678 17.1275 18.5422 17.3287L17.1662 18.4946C16.4945 18.8172 15.8701 18.1425 14.7634 16.7251L12.4552 13.0764C11.9906 12.1383 11.6237 11.1795 12.2688 10.7002L13.8549 9.86566V9.8627C14.1982 9.64668 14.2662 9.20872 14.0709 8.89505V8.89209L11.3692 4.60719C11.162 4.27577 10.73 4.18107 10.4075 4.38821L8.99888 5.49791C8.16735 6.22291 6.13439 9.5875 10.5643 16.7931C15.1569 24.271 19.3294 24.1053 20.371 23.5815L21.9986 22.8121V22.8091C22.3389 22.5872 22.4069 22.1522 22.2087 21.8326Z" fill="#051920"/>
<path d="M14.5 0C6.50429 0 0 6.50429 0 14.5C0 22.4987 6.50429 29 14.5 29C22.4928 29 29 22.4957 29 14.5C29 6.50429 22.4928 0 14.5 0ZM14.5 27.4316C7.36837 27.4316 1.56541 21.6346 1.56541 14.5C1.56541 7.37133 7.36837 1.56837 14.5 1.56837C21.6287 1.56837 27.4316 7.37133 27.4316 14.5C27.4316 21.6346 21.6287 27.4316 14.5 27.4316Z" fill="#051920"/>
</svg>
