<svg width="29" height="29" viewBox="0 0 29 29" fill="none" xmlns="http://www.w3.org/2000/svg">
<path d="M3.38837 0.327293C2.57086 0.432854 1.95896 0.738806 1.34184 1.35042C0.852315 1.83994 0.568695 2.32366 0.390925 2.99095C0.296385 3.33025 0.290875 4.03089 0.290875 14.5031C0.290875 26.9829 0.257525 25.9038 0.691365 26.7939C0.974985 27.3724 1.63126 28.0284 2.20952 28.3123C3.09924 28.7461 2.02044 28.7128 14.5003 28.7128C26.9802 28.7128 25.9011 28.7461 26.7911 28.3123C27.3693 28.0287 28.0256 27.3724 28.3092 26.7939C28.7431 25.9041 28.7097 26.9829 28.7097 14.5031C28.7097 4.03089 28.7042 3.33025 28.6097 2.99095C28.2704 1.71727 27.325 0.766354 26.0403 0.393705C25.7288 0.299164 25.0169 0.293653 14.7227 0.288143C8.68289 0.282633 3.57745 0.299454 3.38837 0.327293ZM16.7356 3.54165C19.0434 4.00884 20.9455 5.02645 22.5472 6.65046C24.0155 8.13526 24.9832 9.95936 25.4391 12.1062C25.578 12.757 25.5893 12.9014 25.5948 14.1696C25.5948 15.2597 25.5725 15.6434 25.4893 16.0882C24.8553 19.525 22.6696 22.4172 19.5385 23.9577C16.4964 25.4538 12.7702 25.4314 9.71152 23.8965L9.40006 23.7407L6.41365 24.6916C4.77312 25.2145 3.41041 25.626 3.39388 25.6092C3.37735 25.5869 3.79988 24.2856 4.33377 22.706L5.307 19.8365L4.98453 19.2135C3.53308 16.4052 3.36603 13.1404 4.52865 10.2206C5.10139 8.7692 5.90238 7.58455 7.05919 6.46109C7.69863 5.83817 7.98805 5.59921 8.66086 5.15957C9.99572 4.28638 11.5139 3.70811 13.11 3.46335C13.9273 3.34126 15.9573 3.38593 16.7356 3.54165Z" fill="#051920"/>
<path d="M13.3043 5.24371C9.9006 5.78311 7.05338 8.19127 5.99662 11.428C5.16809 13.9695 5.52943 16.8449 6.95884 19.0361C7.1311 19.2974 7.2703 19.5477 7.2703 19.5868C7.2703 19.6257 7.02003 20.3878 6.71408 21.2775C6.41364 22.1672 6.19121 22.8847 6.23036 22.8737C6.26922 22.8627 7.05338 22.6124 7.97123 22.3175L9.65091 21.7891L10.1683 22.095C11.1694 22.6733 12.4706 23.0961 13.6663 23.2405C14.4449 23.3296 15.7461 23.2739 16.4749 23.1237C20.1956 22.345 23.0263 19.4865 23.7104 15.8104C23.8661 14.9819 23.8551 13.241 23.6881 12.4682C22.8865 8.74198 19.9558 5.90549 16.2574 5.27155C15.4898 5.14366 14.0328 5.12713 13.3043 5.24371ZM11.9584 9.38143C12.0863 9.50381 13.0541 11.8006 13.0541 11.9842C13.0541 12.1843 12.876 12.4847 12.5034 12.9131C12.3143 13.1245 12.1641 13.3469 12.1641 13.4081C12.1641 13.4693 12.2975 13.7195 12.4645 13.9698C13.293 15.2157 14.2886 16.061 15.6122 16.6393C15.9013 16.7672 16.1237 16.8339 16.2017 16.8173C16.2684 16.8005 16.5187 16.5502 16.7524 16.2724C16.9859 15.9888 17.242 15.6828 17.3142 15.5941C17.431 15.4552 17.4809 15.4384 17.6645 15.4662C17.8924 15.4941 19.9891 16.4783 20.1837 16.6454C20.2838 16.7289 20.2951 16.7843 20.2672 17.1236C20.2116 17.7853 20.0782 18.1023 19.7 18.486C19.1716 19.0199 18.3985 19.3368 17.6143 19.3424C17.2193 19.3424 16.4685 19.1423 15.4619 18.7641C14.0438 18.2302 13.1318 17.6296 12.0417 16.5227C11.3576 15.8331 11.0908 15.5106 10.5122 14.6818C9.95599 13.8808 9.75589 13.5194 9.54448 12.891C9.24984 12.0013 9.29972 11.1504 9.70572 10.3718C9.9615 9.87124 10.451 9.36519 10.7457 9.29298C11.0742 9.20917 11.8361 9.26456 11.9584 9.38143Z" fill="#051920"/>
</svg>
